<?xml version="1.0" encoding="UTF-8" standalone="no"?>
<svg
   xmlns:dc="http://purl.org/dc/elements/1.1/"
   xmlns:cc="http://creativecommons.org/ns#"
   xmlns:rdf="http://www.w3.org/1999/02/22-rdf-syntax-ns#"
   xmlns:svg="http://www.w3.org/2000/svg"
   xmlns="http://www.w3.org/2000/svg"
   xmlns:sodipodi="http://sodipodi.sourceforge.net/DTD/sodipodi-0.dtd"
   xmlns:inkscape="http://www.inkscape.org/namespaces/inkscape"
   inkscape:version="1.0 (4035a4fb49, 2020-05-01)"
   inkscape:export-ydpi="400"
   inkscape:export-xdpi="400"
   inkscape:export-filename="/home/jespino/.gocode/src/github.com/mattermost/mattermost-plugin-jitsi/assets/icon.png"
   sodipodi:docname="icon.svg"
   id="svg2"
   version="1.1"
   width="375"
   height="375"
   viewBox="0 0 375 375">
  <sodipodi:namedview
     inkscape:current-layer="svg2"
     inkscape:window-maximized="0"
     inkscape:window-y="47"
     inkscape:window-x="2560"
     inkscape:cy="193.89234"
     inkscape:cx="49.669006"
     inkscape:zoom="1.5871751"
     showgrid="false"
     id="namedview6"
     inkscape:window-height="1391"
     inkscape:window-width="2556"
     inkscape:pageshadow="2"
     inkscape:pageopacity="0"
     guidetolerance="10"
     gridtolerance="10"
     objecttolerance="10"
     borderopacity="1"
     bordercolor="#666666"
     pagecolor="#ffffff" />
  <metadata
     id="metadata8">
    <rdf:RDF>
      <cc:Work
         rdf:about="">
        <dc:format>image/svg+xml</dc:format>
        <dc:type
           rdf:resource="http://purl.org/dc/dcmitype/StillImage" />
        <dc:title></dc:title>
      </cc:Work>
    </rdf:RDF>
  </metadata>
  <defs
     id="defs6" />
  <rect
     ry="71.312363"
     y="0.57730889"
     x="0.64727813"
     height="374.98816"
     width="375.12106"
     id="rect840"
     style="fill:#17a0db;fill-opacity:1;stroke:none;stroke-width:3.21638;stroke-linecap:round;stroke-linejoin:round" />
  <path
     style="fill:#ffffff;stroke-width:0;fill-opacity:1;stroke-miterlimit:4;stroke-dasharray:none"
     d="m 239.20084,16.90713 c -0.47805,0.004 -0.9635,0.0248 -1.45703,0.0645 -6.09898,0.48957 -11.36973,4.04784 -14.25195,9.62109 -1.10085,2.12866 -1.38346,4.0218 -1.76758,11.83399 -0.5062,10.29546 -0.91307,13.33044 -2.09961,15.68945 -1.86615,3.7102 -8.95035,8.11938 -19.13086,11.90429 -7.09739,2.63868 -12.04745,5.7653 -17.10742,10.80665 -7.13631,7.11006 -9.98622,13.64518 -12.61719,28.92578 -0.64158,3.72633 -1.16987,8.69868 -1.17187,11.05078 -0.003,2.71064 -0.27853,4.48751 -0.75391,4.85156 -0.4125,0.3159 -2.63922,1.06936 -4.94922,1.67578 -13.67593,3.59019 -24.97193,10.34192 -32.48241,19.41406 -3.80221,4.59281 -8.2019,13.11776 -9.54101,18.48829 -2.11383,8.47764 -2.06536,19.56735 0.12695,29.29296 1.27854,5.67188 1.62729,8.69179 1.00976,8.74219 -0.28216,0.023 -3.07789,0.11217 -6.21289,0.19727 -8.91637,0.24207 -14.94925,3.27807 -22.675779,11.41211 -8.31358,8.75202 -13.46751,20.24583 -15.67774,34.96484 -0.94162,6.2707 -0.79167,23.81383 0.2832,33.18359 1.14041,9.94106 3.29034,19.80541 6.06445,27.83008 1.38409,4.00373 6.19347,13.78971 14.12892,28.74414 6.617059,12.4699 12.112239,22.59089 12.210939,22.49219 0.0987,-0.0987 2.75874,-11.8106 5.91211,-26.02734 7.20398,-32.47869 8.68871,-37.41415 13.39062,-44.50391 3.26201,-4.91861 3.4733,-4.94399 11.00976,-1.36523 7.72829,3.66984 15.69098,5.80801 25.13672,6.75 5.88553,0.58694 8.15099,0.53462 15.20898,-0.34961 20.81916,-2.60825 38.73109,-11.12919 52.69336,-25.06641 5.45537,-5.44558 6.01781,-5.84028 9.30859,-6.52344 12.76047,-2.64907 27.47988,-15.36473 36.75,-31.74804 9.45366,-16.70769 14.40958,-35.71513 16.31446,-62.57422 2.06764,-29.15393 -5.60168,-48.43201 -23.24805,-58.4336 -1.84869,-1.0478 -5.19375,-2.48255 -7.43359,-3.18945 -2.23983,-0.70691 -4.32104,-1.61128 -4.625,-2.00976 -0.5569,-0.73011 -3.17526,-10.3424 -3.16016,-11.60157 0.004,-0.37252 0.91133,-2.17785 2.01563,-4.01172 4.55039,-7.55667 6.80279,-18.46841 5.75,-27.85742 -0.73021,-6.51221 -6.07803,-22.7726 -9.9668,-30.30273 -4.36162,-8.44571 -9.81363,-12.42837 -16.98438,-12.3711 z m -0.15429,13.72071 c 3.2503,0 6.45364,6.06476 11.5664,21.89843 3.57235,11.0632 2.55304,20.96333 -3.06054,29.72657 -1.36527,2.13129 -3.17147,4.60939 -4.01563,5.50781 l -1.53516,1.63281 1.8711,4.06641 c 1.02975,2.23658 2.32862,5.8218 2.88476,7.9668 1.02658,3.95956 1.36011,11.26386 0.61914,13.5625 -0.38999,1.20983 -0.16489,1.27707 5.45508,1.60742 15.33257,0.90126 24.83105,8.90706 29.0586,24.49414 1.22083,4.50121 1.36142,6.34172 1.32812,17.33594 -0.0519,17.15589 -1.91329,30.42057 -6.24609,44.50585 -6.12709,19.91824 -16.80663,35.00291 -30.02735,42.41602 -4.00556,2.24599 -7.07813,2.43987 -9.65429,0.60547 -0.98387,-0.7006 -1.99087,-1.03807 -2.23828,-0.75 -0.24742,0.28808 -1.7705,2.41265 -3.38477,4.72266 -15.61561,22.34573 -48.67052,34.47781 -74.97461,27.51757 -4.87391,-1.28967 -14.87323,-6.19554 -18.82811,-9.23633 l -3.23047,-2.48437 -4.13477,2.82617 c -10.88268,7.4358 -17.59569,19.45602 -22.10547,39.57813 -0.7396,3.3 -1.5928,6.47132 -1.89453,7.04883 -0.64172,1.22822 -1.9056,1.36619 -2.76367,0.30078 -1.48154,-1.83952 -4.955349,-9.6437 -6.642579,-14.92188 -3.8525,-12.05181 -5.54288,-24.15567 -5.58008,-39.96094 -0.0262,-11.12125 0.54781,-15.76403 2.85547,-23.1289 2.37287,-7.57299 5.36637,-12.77781 10.162109,-17.66406 6.42598,-6.54727 10.24834,-7.79573 17.83399,-5.83008 4.75936,1.23327 7.95412,2.89155 17.79297,9.24023 12.64835,8.16155 13.1626,8.34668 14.6367,5.24024 1.26326,-2.66213 2.26694,-7.2826 1.63086,-7.50586 -1.9637,-0.68925 -7.37599,-5.2321 -9.80273,-8.22852 -3.68154,-4.54578 -8.37764,-14.04431 -10.29882,-20.82812 -2.8246,-9.97379 -3.0953,-22.27484 -0.64258,-29.22657 3.71144,-10.51935 11.75459,-18.41264 23.71288,-23.27343 5.83547,-2.37198 9.50543,-3.37783 18.29883,-5.00977 3.95999,-0.73492 7.2645,-1.38105 7.3418,-1.43555 0.0773,-0.0545 -0.28572,-2.10589 -0.80664,-4.55859 -1.179,-5.55124 -0.85914,-17.96679 0.63281,-24.55859 3.3563,-14.82883 7.67095,-19.9434 21.33203,-25.28125 3.46501,-1.35389 7.65078,-3.14121 9.30078,-3.97266 7.36481,-3.71118 13.90278,-9.45598 16.45313,-14.45508 1.80287,-3.53393 3.04381,-10.57514 3.45117,-19.5918 0.3809,-8.43093 0.92194,-9.89843 3.64844,-9.89843 z m -10.0918,47.625 c -0.18262,-0.0599 -0.97172,0.32679 -1.91016,0.94922 -1.0725,0.71133 -7.08156,3.82373 -13.35156,6.91601 -13.98261,6.89605 -15.86051,8.38519 -17.57422,13.92578 -0.69474,2.24616 -1.43742,5.07103 -1.65039,6.27735 l -0.38672,2.19336 7.70508,-3.26172 c 12.70962,-5.377 13.58244,-5.82993 16.01953,-8.32617 3.23606,-3.3146 6.75761,-8.63369 9.16211,-13.8379 1.11399,-2.4111 2.02539,-4.56221 2.02539,-4.78125 0,-0.0274 -0.013,-0.0461 -0.0391,-0.0547 z m 6.30469,20.77343 c -0.44187,0 -2.57209,1.69306 -4.73438,3.76172 -3.64397,3.48618 -3.93164,3.94931 -3.93164,6.33008 0,2.9488 1.19999,5.62021 3.13086,6.97266 4.11896,2.88503 8.26953,-1.44487 8.26953,-8.62696 0,-3.93889 -1.45797,-8.4375 -2.73437,-8.4375 z m -20.33789,11.4004 c -2.82274,0 -19.02559,7.3797 -20.9961,9.5625 -1.06035,1.17457 -1.10323,1.59962 -0.4707,4.61523 1.42645,6.80063 5.09963,12.53608 10.58008,16.52148 1.4394,1.04673 3.09512,1.70118 4.30469,1.70118 2.28846,0 8.74167,-3.21516 13.18554,-6.57032 2.95377,-2.23011 6.86914,-7.22328 6.86914,-8.75976 0,-0.39839 -0.82078,-1.06483 -1.82422,-1.48047 -5.26143,-2.17936 -8.53103,-6.36194 -10.18945,-13.03906 -0.36195,-1.45731 -0.98726,-2.55078 -1.45898,-2.55078 z m 44.22656,17.52539 c -0.16891,0.0104 -0.32872,0.0429 -0.47656,0.0996 -0.96913,0.37189 -2.67774,5.8031 -2.67774,8.50976 0,1.05363 1.51482,6.33626 3.36524,11.74024 5.29923,15.47588 8.35465,25.05709 9.5332,29.89257 1.32469,5.43501 1.71757,4.77056 2.64844,-4.47851 1.54159,-15.31729 0.56416,-28.18539 -2.69922,-35.56446 -2.40788,-5.44463 -7.15967,-10.3546 -9.69336,-10.19921 z m -13.57227,3.11523 c -0.0644,-0.0134 -0.13387,-0.002 -0.21093,0.0273 -1.80527,0.69274 -8.04697,5.35637 -13.67188,10.2168 -10.68767,9.23508 -19.05607,14.12218 -24.15625,14.10938 -3.037,-0.008 -7.57883,-2.70617 -12.72266,-7.5586 l -4.17187,-3.93554 -4.375,0.67773 c -6.61194,1.02278 -16.70158,3.44421 -21.60156,5.18555 -9.01338,3.20314 -14.48841,7.39337 -17.4043,13.3164 -1.94947,3.9599 -1.9688,4.07485 -1.9668,12.70899 0.001,7.90284 0.16076,9.21321 1.70703,14.11133 2.86134,9.06385 7.24926,16.35206 11.44532,19.01367 1.57507,0.99908 2.55503,1.1249 6.64648,0.8457 2.64,-0.18016 8.04,-1.0093 12,-1.8418 8.26041,-1.73655 32.09961,-8.21441 32.09961,-8.72265 0,-0.59252 -7.54666,-5.3286 -10.58203,-6.64063 -10.38481,-4.48879 -20.09771,-4.68876 -36.54883,-0.75195 -3.98292,0.95313 -7.26299,1.42933 -8.21094,1.1914 -1.75275,-0.43991 -2.55095,-2.14446 -2.01171,-4.29296 0.49467,-1.9709 8.47545,-7.83164 15.6875,-11.52149 17.50391,-8.9554 35.70886,-10.41308 53.96484,-4.31836 10.85102,3.62259 18.22178,7.78053 36.00195,20.3086 2.31,1.62764 4.41583,2.74727 4.67969,2.48632 1.19034,-1.17718 -3.67441,-19.81956 -9.48633,-36.35546 -6.31056,-17.95456 -6.39319,-18.26089 -6.46289,-23.56836 -0.0443,-3.37519 -0.19791,-4.59744 -0.64844,-4.69141 z m -49.33398,48.4375 c -7.08263,-0.0761 -7.76872,0.45628 -2.32813,1.67383 9.38096,2.09937 17.93214,7.25683 26.38086,15.91015 6.12653,6.27489 7.63423,7.41793 10.79883,8.18164 4.12769,0.99614 15.05351,0.19573 18.93164,-1.38671 l 1.93555,-0.78907 -8.0332,-6.03515 c -9.60164,-7.21263 -13.60604,-9.70132 -20.17579,-12.54102 -8.57744,-3.70751 -13.10837,-4.6374 -24.08203,-4.94336 -1.27371,-0.0355 -2.41593,-0.0594 -3.42773,-0.0703 z m 20.07422,27.82227 -16.61133,5.63671 c -17.62669,5.98126 -30.06647,10.5874 -30.94141,11.45704 -0.29173,0.28996 -1.29939,2.43851 -2.23828,4.77539 -4.17635,10.39481 -11.54033,18.27116 -23.03125,24.63281 -1.98,1.09617 -3.71455,2.08861 -3.85546,2.20312 -0.74206,0.60303 8.39624,6.49618 12.46874,8.04102 1.86312,0.70674 5.68133,1.79339 8.48633,2.41602 6.76851,1.50243 19.55301,1.21046 26.87696,-0.61524 23.33692,-5.81739 42.48733,-25.78038 44.86132,-46.76367 l 0.41016,-3.62305 -1.72461,-0.38476 c -5.72659,-1.27518 -9.8676,-3.19395 -12.71289,-5.89063 z m 45.38086,3.50781 c -0.49458,-0.0151 -2.14403,0.40587 -3.98242,1.03125 -2.10102,0.71472 -6.11473,1.76973 -8.91797,2.34375 l -5.09571,1.04297 -0.65625,5.67578 c -0.36086,3.12084 -1.143,7.47276 -1.73828,9.67187 -0.87959,3.24949 -0.94081,4.16917 -0.32422,4.91211 0.41727,0.50279 1.00452,0.91407 1.30469,0.91407 1.00441,-1e-5 9.86424,-9.25262 12.63867,-13.19922 3.24799,-4.62023 7.3367,-11.93283 6.91016,-12.35938 -0.0207,-0.0207 -0.068,-0.031 -0.13867,-0.0332 z m -145.82421,15.39258 c -1.35618,0 -5.99107,5.86686 -8.25977,10.45507 -4.63998,9.38391 -6.45357,20.97207 -5.26953,33.66211 0.39936,4.28019 0.88117,8.92953 1.07031,10.33204 0.18914,1.4025 0.43734,2.55078 0.55274,2.55078 0.11539,0 0.99396,-1.55368 1.95312,-3.45118 3.13851,-6.20897 8.42841,-12.70417 14.4375,-17.73046 l 2.66407,-2.22852 -1.84766,-1.94531 c -3.66792,-3.86527 -3.91227,-4.93986 -3.82227,-16.77539 0.0879,-11.56257 -0.24139,-14.86914 -1.47851,-14.86914 z m 15.01758,5.6289 c -0.0785,-0.004 -0.13436,0.007 -0.16407,0.0371 -1.00471,1.00303 -2.36949,15.89809 -1.5332,16.73438 0.22,0.22 0.63356,0.39843 0.91797,0.39843 1.13143,0 7.59625,-3.62679 11.20897,-6.28906 l 3.82618,-2.82031 -3.22657,-1.80859 c -1.77457,-0.99479 -4.9218,-2.89649 -6.99413,-4.22657 -1.81329,-1.16382 -3.48584,-1.99502 -4.03515,-2.02539 z"
     id="path1016-3" />
</svg>
